Patient5_TMGait_0pt45_1_right_09_EMG.mot
version=1
nRows=13
nColumns=33
inDegrees=no
endheader
time	1LAddLong	2LGlutMax	3LGlutMed	4LIliopsoas	5LSemiMemb	6LBicFemLong	7LRecFem	8LTensFascLat	9LVastMed	10LVasLat	11LGasMed	12lGasLat	13LTibAnt	14LPeroneusLong	15LSol	16LTibPost	17RAddLong	18RGlutMax	19RGlutMed	20RIliopsoas	21RSemiMemb	22RBicFemLong	23RRecFem	24RTensFascLat	25RVastMed	26RVasLat	27RGasMed	28RGasLat	29RTibAnt	30RPeroneusLong	31RSol	32RTibPost
16.398	-0.02655	-0.002899	-0.18249	-0.001984	0.006256	-0.04837	0.024261	-0.14191	0.059357	-0.010834	-0.035553	0.055847	0.016632	0.096741	-0.083466	0.017548	0.006104	-0.001373	0.023956	0.011597	0.057983	-0.00061	0.003204	-0.13947	-0.019073	-0.002899	-0.002747	-0.015259	-0.016327	-0.026093	-0.024719	-0.006409
16.399	-0.02533	0.00473	-0.20844	-0.001678	0.005493	-0.013275	0.031433	-0.18997	0.065155	-0.00885	-0.12772	0.031891	0.032959	0.033875	0.067139	0.12421	0.00061	-0.002594	-0.011902	-0.013123	0.17838	-0.000153	0.004425	-0.087738	-0.018158	-0.005798	0.000916	-0.01297	-0.018311	-0.021362	-0.021973	-0.001831
16.4	-0.012512	-0.005646	-0.20737	0.007477	-0.015869	0.003815	0.020752	-0.1799	0.044556	0.00473	0.024261	0.028839	0.025635	0.002594	0.063782	0.10269	0.005341	-0.00824	-0.049744	-0.003052	0.22415	-0.003967	0.001678	-0.025177	-0.016937	-0.007782	0.001221	0.005798	-0.006409	0.000763	-0.019073	-0.000153
16.401	-0.005341	-0.006561	-0.17654	0.001373	-0.020142	0.051117	0.020752	-0.14954	0.021973	0.011139	0.1181	0.021057	0.025177	-0.024261	0.015564	0.1532	0.004425	-0.003662	-0.08194	-0.063324	0.17502	-0.00351	0.00412	0.01236	-0.01358	-0.001068	-0.001068	0.006104	0.033264	0.03067	-0.006104	-0.002594
16.402	-0.00885	-0.010834	0.049286	0.019531	-0.008698	0.023956	0.035553	-0.02533	-0.003204	0.032043	0.045776	0.016327	0.004425	-0.022583	0.013428	0.051422	0.006714	-0.001526	-0.11429	-0.028076	0.15335	-0.013733	0.00061	0.056915	-0.009308	-0.003204	0.001831	-0.001068	0.02243	0.055237	-0.007782	0.003815
16.403	-0.007935	-0.012054	0.18051	0.012512	0.003204	0.029144	0.022278	-0.028229	-0.039673	0.015106	0.037537	-0.076294	-0.005188	-0.026093	-0.018463	0.066528	0.005493	-0.003357	-0.11917	0.010834	0.11002	-0.011749	0.000458	0.085144	-0.011902	-0.004578	0.002594	-0.006561	-0.000763	0.050354	-0.010986	-0.002899
16.404	0.005341	-0.005646	0.15564	0.017853	-0.003662	0.007629	0.01236	0.31937	-0.064087	-0.019836	0.025787	-0.065002	-0.00824	-0.000458	-0.01297	-0.038147	0.006561	-0.002594	-0.049744	-0.004578	0.067596	-0.005798	-0.001526	0.053101	-0.010376	-0.007629	-0.001068	0.000153	0.00473	0.023346	-0.012054	-0.002747
16.405	0.023956	0.004425	0.12894	0.022736	-0.010071	-0.012665	0.005035	0.40359	-0.066528	-0.059509	-0.007629	-0.039825	-0.00351	0.097351	0.018768	-0.031433	0.005798	-0.005188	-0.01236	0.015717	0.047302	-0.004578	0.001984	0.061035	-0.016785	-0.011749	-0.007019	0.00061	0.016174	-0.001831	-0.017242	-0.001373
16.406	0.019379	0.00885	0.0177	0.001526	-0.003357	-0.001373	-0.003204	0.23392	-0.051727	-0.063934	-0.005493	0.047302	-0.016937	0.15976	0.089264	0.010071	0.005646	-0.001373	-0.001526	-0.018158	-0.027313	0.00061	0.000153	0.061035	-0.012665	-0.008087	-0.003052	0.002136	-0.024414	-0.04364	-0.022583	-0.000305
16.407	0.013275	0.011902	-0.021515	0.007324	0.007782	0.041199	-0.011902	0.15411	-0.041199	-0.075226	0.01297	0.077667	-0.022888	0.11536	0.062561	-0.059509	0.010223	-0.000763	-0.020599	-0.03418	-0.080566	0.010223	0.001068	0.052185	-0.012817	0.000305	-0.000458	-0.00061	-0.044556	-0.036774	-0.024872	-0.001678
16.408	0.02121	0.012512	-0.032196	0.012512	0.013733	0.0354	-0.038147	0.024414	-0.036163	-0.011749	0.021515	0.012817	-0.006714	-0.041656	0.005646	-0.1384	0.005493	-0.003052	-0.057831	-0.008545	-0.12161	0.001373	-0.000153	0.030823	-0.008545	-0.00885	0.002747	-0.008087	-0.028992	-0.024872	-0.034332	-0.000916
16.409	0.021973	0.005646	-0.13962	0.003052	0.011597	0.022736	-0.039825	-0.21408	-0.006104	0.00473	0.005188	0.001678	0.007935	-0.080261	-0.042267	0.1033	0.007324	-0.002289	-0.04303	-0.052948	-0.13428	0.000153	0.001678	-0.000763	-0.013123	-0.008698	-0.000916	-0.006714	-0.008545	-0.018158	-0.05249	-0.003662
16.41	0.030823	0.00885	-0.17075	0.017548	0.016937	0.015717	-0.038605	-0.16174	0.007782	0.034637	0.061798	0.014038	0.001526	-0.005493	-0.23224	-0.049286	0.00412	-0.002899	-0.013428	-0.031281	-0.13062	-0.001373	0.003204	0.012512	-0.017853	-0.005798	-0.007935	-0.009308	0.004578	-0.004578	-0.045166	-0.003662
